<?xml version="1.0" encoding="UTF-8" standalone="no"?>
<!DOCTYPE svg PUBLIC "-//W3C//DTD SVG 1.1//EN" "http://www.w3.org/Graphics/SVG/1.1/DTD/svg11.dtd">
<svg width="100%" height="100%" viewBox="0 0 956 248" version="1.1" xmlns="http://www.w3.org/2000/svg" xmlns:xlink="http://www.w3.org/1999/xlink" xml:space="preserve" xmlns:serif="http://www.serif.com/" style="fill-rule:evenodd;clip-rule:evenodd;stroke-linejoin:round;stroke-miterlimit:2;">
    <g transform="matrix(1,0,0,1,-118,-377)">
        <path d="M368.935,448.746C333.416,448.729 310.398,448.729 274.88,448.746C274.943,457.158 274.816,470.351 274.943,478.763C310.462,478.635 333.492,478.852 369.01,478.658C368.946,470.279 369.091,457.119 368.935,448.746Z" style="fill:white;fill-rule:nonzero;"/>
        <path d="M487.747,563.565C487.747,525.288 487.81,487.011 487.712,448.734C476.686,448.817 465.659,448.723 454.633,448.778C454.621,467.437 454.685,486.097 454.598,504.756C453.943,504.562 453.433,504.196 453.062,503.675C441.503,485.376 429.909,467.094 418.361,448.79C406.651,448.773 394.935,448.701 383.23,448.828C408.319,487.067 433.368,525.332 458.44,563.582C468.209,563.559 477.978,563.593 487.747,563.565Z" style="fill:white;fill-rule:nonzero;"/>
        <path d="M258.993,448.733C246.477,448.87 233.915,448.642 221.398,448.825C213.586,463.168 205.592,477.376 197.689,491.674L197.689,544.117C205.501,531.326 212.901,518.307 220.576,505.424C222.175,502.683 223.636,499.942 225.509,497.384C225.601,519.448 225.509,541.513 225.555,563.577L259.04,563.577C259.04,525.296 259.084,487.014 258.993,448.733Z" style="fill:white;fill-rule:nonzero;"/>
        <path d="M136.342,448.733C136.251,487.014 136.296,525.296 136.296,563.577L169.781,563.577C169.827,541.513 169.735,519.448 169.827,497.384C171.7,499.942 173.161,502.683 174.76,505.424C182.435,518.307 189.835,531.326 197.647,544.117L197.647,491.674C189.744,477.376 181.75,463.168 173.938,448.825C161.421,448.642 148.859,448.87 136.342,448.733Z" style="fill:white;fill-rule:nonzero;"/>
        <path d="M382.917,448.76C382.773,478.952 382.877,533.374 382.865,563.571C394.06,563.576 405.249,563.582 416.443,563.565C416.42,550.204 416.536,512.607 416.391,499.246C406.181,483.341 395.63,467.619 385.357,451.747C384.633,450.694 384.105,449.414 382.917,448.76Z" style="fill:white;fill-rule:nonzero;"/>
        <path d="M338.788,469.089C327.547,469.034 316.306,469.122 305.065,469.045C305.03,494.537 305.03,538.084 305.065,563.576C316.323,563.493 327.593,563.743 338.851,563.449C338.712,538.018 338.834,494.52 338.788,469.089Z" style="fill:white;fill-rule:nonzero;"/>
        <rect x="136.285" y="422.443" width="351.482" height="13.006" style="fill:white;fill-rule:nonzero;"/>
        <rect x="696.541" y="422.443" width="356.799" height="13.006" style="fill:white;fill-rule:nonzero;"/>
        <path d="M136.285,576.882L136.285,589.887L524.919,589.887L500.151,576.882L136.285,576.882Z" style="fill:white;fill-rule:nonzero;"/>
        <path d="M659.389,589.887L1053.34,589.887L1053.34,576.882L684.157,576.882L659.389,589.887Z" style="fill:white;fill-rule:nonzero;"/>
        <path d="M824.418,448.733C811.901,448.87 799.338,448.642 786.821,448.825C779.01,463.168 771.016,477.376 763.113,491.674L763.113,544.117C770.924,531.326 778.324,518.307 785.999,505.424C787.598,502.683 789.06,499.942 790.933,497.384C791.024,519.448 790.933,541.513 790.978,563.577L824.463,563.577C824.463,525.296 824.509,487.014 824.418,448.733Z" style="fill:white;fill-rule:nonzero;"/>
        <path d="M701.765,448.733C701.674,487.014 701.72,525.296 701.72,563.577L735.204,563.577C735.25,541.513 735.159,519.448 735.25,497.384C737.123,499.942 738.585,502.683 740.184,505.424C747.858,518.307 755.259,531.326 763.07,544.117L763.07,491.674C755.167,477.376 747.173,463.168 739.362,448.825C726.845,448.642 714.282,448.87 701.765,448.733Z" style="fill:white;fill-rule:nonzero;"/>
        <path d="M943.503,448.057C932.251,448.135 920.992,447.958 909.74,448.152C909.792,470.252 909.763,492.358 909.757,514.459C909.815,519.79 909.306,525.514 906.009,530.015C901.779,535.788 893.139,536.682 886.7,534.907C876.991,532.229 874.519,524.41 874.331,515.041C874.262,492.719 874.384,470.396 874.273,448.074C862.934,448.129 851.589,447.952 840.25,448.163C840.325,469.155 840.261,490.142 840.279,511.134C840.116,515.041 840.945,518.893 840.765,522.805C841.351,528.092 842.318,533.412 844.294,538.41C846.89,545.227 851.351,551.511 857.574,555.756C865.605,561.237 875.537,563.87 885.312,564.23C885.312,564.23 898.737,564.23 898.748,564.274C905.644,563.908 912.527,562.34 918.814,559.58C926.943,556.039 933.566,549.655 937.57,542.052C942.077,533.351 943.567,523.537 943.601,513.91C943.787,501.17 943.63,488.418 943.683,475.672C943.573,466.467 943.903,457.257 943.503,448.057Z" style="fill:white;fill-rule:nonzero;"/>
        <path d="M1021.51,530.833C1020.04,532.207 1018.41,533.428 1016.7,534.573C1012.25,537.04 1004.11,539.915 989.712,540.755L989.712,475.322C989.712,475.322 990.399,475.271 991.544,475.271C996.403,475.271 1009.78,475.907 1019.17,482.344C1019.68,482.725 1020.16,483.031 1020.6,483.463C1021,483.768 1021.44,484.099 1021.82,484.455C1022.45,485.066 1023.01,485.626 1023.57,486.236C1023.65,486.338 1023.7,486.44 1023.78,486.516C1025.61,488.704 1026.93,491.171 1027.9,493.843C1027.95,493.995 1028.05,494.148 1028.08,494.326C1029.22,497.633 1029.78,501.119 1029.78,504.604C1029.78,505.113 1029.78,505.647 1029.73,506.156C1030.09,514.907 1027.82,524.193 1021.51,530.833ZM1063.54,503.408C1063.36,493.13 1061,482.649 1055.07,473.923C1052.47,470.005 1049.14,466.647 1045.4,463.747L1045.45,463.671C1045.45,463.671 1029.65,449.068 989.712,449.475C978.341,449.399 966.918,449.373 955.546,449.526C955.597,487.661 955.622,525.847 955.495,563.982L1008.08,563.982C1008.61,563.956 1009.23,563.905 1009.78,563.753C1009.91,563.753 1010.04,563.702 1010.19,563.702C1018.36,562.633 1027.49,560.369 1035.81,556.044C1035.96,555.943 1036.09,555.917 1036.17,555.866C1036.29,555.764 1036.47,555.739 1036.6,555.612C1036.93,555.408 1037.36,555.23 1037.77,555.052C1038,554.849 1038.28,554.722 1038.51,554.594C1039.09,554.213 1039.65,553.856 1040.16,553.526C1045.78,549.964 1050.77,545.537 1054.36,540.068C1061.76,529.307 1063.95,516.052 1063.54,503.408Z" style="fill:white;fill-rule:nonzero;"/>
        <path d="M545.604,545.942L583.127,510.429L565.562,493.805L545.604,545.942Z" style="fill:white;fill-rule:nonzero;"/>
        <path d="M532.755,579.401L593.729,610.445L593.729,574.446L534.655,574.446L532.755,579.401Z" style="fill:white;fill-rule:nonzero;"/>
        <path d="M560.223,437.649L560.223,419.469L504.352,389.555L504.352,561.487L518.393,569.087L526.653,547.532L528.552,542.577L568.762,437.649L560.223,437.649Z" style="fill:white;fill-rule:nonzero;"/>
        <path d="M610.789,464.865L600.382,437.649L587.078,437.649L576.67,464.865L610.789,464.865Z" style="fill:white;fill-rule:nonzero;"/>
        <path d="M593.726,500.398L616.291,479.042L571.2,479.078L593.726,500.398Z" style="fill:white;fill-rule:nonzero;"/>
        <path d="M593.73,520.448L554.247,557.742L633.213,557.742L593.73,520.448Z" style="fill:white;fill-rule:nonzero;"/>
        <path d="M621.879,493.815L604.325,510.429L641.825,545.92L621.879,493.815Z" style="fill:white;fill-rule:nonzero;"/>
        <path d="M593.73,574.446L593.73,610.445L654.704,579.401L652.805,574.446L593.73,574.446Z" style="fill:white;fill-rule:nonzero;"/>
        <path d="M627.236,419.469L627.236,437.649L618.697,437.649L658.908,542.577L660.807,547.532L669.067,569.087L683.108,561.487L683.108,389.555L627.236,419.469Z" style="fill:white;fill-rule:nonzero;"/>
    </g>
</svg>
